<?xml version="1.0" standalone="no"?>
<!DOCTYPE svg PUBLIC "-//W3C//DTD SVG 20010904//EN"
 "http://www.w3.org/TR/2001/REC-SVG-20010904/DTD/svg10.dtd">
<svg version="1.0" xmlns="http://www.w3.org/2000/svg"
 width="170.000000pt" height="170.000000pt" viewBox="0 0 170.000000 170.000000"
 preserveAspectRatio="xMidYMid meet">
<metadata>
Created by potrace 1.11, written by Peter Selinger 2001-2013
</metadata>
<g transform="translate(0.000000,170.000000) scale(0.100000,-0.100000)"
fill="#000000" stroke="none">
<path d="M135 1670 c-11 -4 -31 -20 -45 -35 l-25 -27 -3 -711 c-2 -488 0 -724
8 -749 6 -20 22 -46 37 -57 25 -21 35 -21 742 -21 787 0 743 -3 776 60 23 44
23 1446 0 1490 -32 62 -6 60 -772 59 -384 0 -707 -4 -718 -9z m1459 -36 c14
-15 26 -33 26 -40 0 -7 -13 1 -29 17 l-30 29 -716 -2 -717 -3 -24 -30 c-13
-16 -24 -24 -24 -17 0 8 13 27 29 43 l29 29 715 0 714 0 27 -26z m-1337 -56
c29 -27 29 -57 2 -92 -26 -33 -70 -35 -99 -4 -62 67 30 159 97 96z m1293 -5
c25 -32 20 -69 -12 -95 -44 -38 -111 -7 -111 50 0 70 80 99 123 45z m-1368
-122 c32 -12 54 -6 86 22 27 25 29 8 3 -24 -37 -46 -130 -24 -145 34 l-5 22
17 -22 c9 -12 29 -27 44 -32z m1312 -4 c30 -1 44 5 62 27 13 15 24 23 24 17 0
-21 -46 -61 -77 -67 -27 -5 -37 -1 -63 24 -16 17 -30 36 -30 42 0 6 10 -1 23
-15 17 -20 33 -27 61 -28z m-444 0 c179 -63 322 -210 381 -389 33 -101 34
-261 2 -363 -28 -90 -83 -180 -153 -251 -113 -115 -260 -176 -425 -177 -170
-1 -309 56 -430 178 -146 146 -209 344 -171 535 49 240 215 419 446 482 97 26
251 20 350 -15z m376 -834 c-8 -15 -15 -25 -16 -21 0 12 23 58 27 54 3 -2 -2
-17 -11 -33z m-1007 -183 c131 -130 280 -186 466 -177 199 10 380 114 487 279
17 27 33 46 36 44 9 -9 -71 -119 -126 -173 -186 -183 -491 -225 -725 -101 -76
41 -203 163 -246 238 -17 30 -31 60 -31 65 0 6 14 -15 31 -45 18 -30 66 -89
108 -130z m-179 -155 c56 -29 48 -108 -13 -129 -38 -14 -81 19 -85 63 -4 40
21 71 66 80 2 1 16 -6 32 -14z m1289 0 c78 -40 17 -160 -62 -124 -53 24 -56
102 -3 127 29 14 33 14 65 -3z m51 -105 c0 -6 -11 -22 -25 -35 -37 -37 -113
-31 -129 10 -5 14 -4 14 16 0 34 -23 85 -19 111 9 26 29 27 29 27 16z m-1373
-40 c24 0 45 8 61 23 l25 22 -12 -22 c-24 -47 -89 -57 -128 -21 -13 12 -23 25
-23 30 0 4 9 -1 20 -12 13 -13 33 -20 57 -20z"/>
<path d="M950 1443 c-33 -12 -40 -36 -40 -136 0 -95 -1 -98 -22 -95 -17 2 -25
16 -40 71 -22 83 -51 142 -73 151 -60 23 -186 -15 -234 -70 -17 -19 -31 -40
-31 -47 0 -7 31 -44 70 -82 72 -72 79 -85 57 -103 -10 -9 -23 -5 -50 14 -54
36 -127 66 -165 66 -42 0 -74 -29 -107 -96 -34 -71 -42 -129 -21 -161 16 -24
20 -25 122 -25 102 0 105 -1 102 -21 -2 -17 -16 -25 -75 -40 -158 -40 -186
-78 -148 -207 17 -56 80 -132 109 -132 9 0 51 35 93 77 69 71 77 75 89 59 11
-16 9 -24 -13 -59 -40 -63 -73 -139 -73 -168 0 -40 34 -75 104 -109 67 -32
142 -40 164 -18 8 8 12 49 12 121 l0 108 27 -3 c25 -3 30 -10 44 -63 22 -83
42 -127 68 -149 60 -54 271 29 271 106 0 10 -32 50 -71 89 -66 66 -70 72 -55
87 14 15 19 15 39 2 63 -40 152 -80 177 -80 16 0 42 11 58 25 37 31 83 133 84
185 1 64 -10 70 -128 70 -103 0 -104 0 -104 24 0 21 7 25 58 35 31 6 80 22
109 35 43 20 53 31 61 60 23 83 -55 246 -118 246 -9 0 -47 -31 -85 -70 -72
-73 -88 -81 -103 -54 -7 12 1 35 30 83 69 118 70 167 6 213 -41 30 -72 44
-123 57 -43 12 -52 12 -75 4z m22 -291 c25 -11 64 -36 86 -57 40 -35 92 -123
92 -154 0 -9 -10 4 -22 29 -30 61 -90 117 -155 147 -46 21 -66 25 -131 21
-127 -6 -213 -61 -265 -170 -15 -29 -26 -46 -27 -37 0 9 14 44 31 77 73 146
244 209 391 144z"/>
</g>
</svg>
